<svg xmlns="http://www.w3.org/2000/svg" xmlns:xlink="http://www.w3.org/1999/xlink" width="200" zoomAndPan="magnify" viewBox="0 0 150 149.999998" height="200" preserveAspectRatio="xMidYMid meet" version="1.0"><defs><g/><clipPath id="f8a1b0c420"><path d="M 51.488281 32.320312 L 98.738281 32.320312 L 98.738281 92.320312 L 51.488281 92.320312 Z M 51.488281 32.320312 " clip-rule="nonzero"/></clipPath></defs><g clip-path="url(#f8a1b0c420)"><path fill="#ffffff" d="M 85.433594 34.421875 L 53.707031 58.097656 C 53.101562 58.550781 52.628906 59.109375 52.285156 59.78125 C 51.941406 60.453125 51.765625 61.164062 51.757812 61.914062 C 51.746094 62.671875 51.90625 63.390625 52.234375 64.074219 C 52.5625 64.753906 53.027344 65.332031 53.625 65.796875 L 85.285156 90.539062 C 86.757812 91.699219 88.433594 92.28125 90.308594 92.289062 C 91.5625 92.285156 92.757812 92.007812 93.886719 91.460938 C 94.570312 91.128906 95.191406 90.707031 95.757812 90.199219 C 96.324219 89.691406 96.808594 89.117188 97.210938 88.472656 C 97.613281 87.828125 97.917969 87.144531 98.125 86.414062 C 98.332031 85.6875 98.4375 84.941406 98.4375 84.183594 L 98.4375 40.890625 C 98.4375 40.140625 98.332031 39.402344 98.125 38.679688 C 97.921875 37.960938 97.617188 37.277344 97.222656 36.640625 C 96.824219 36 96.347656 35.429688 95.792969 34.921875 C 95.234375 34.414062 94.617188 33.996094 93.945312 33.660156 C 93.269531 33.324219 92.558594 33.085938 91.820312 32.945312 C 91.078125 32.804688 90.332031 32.769531 89.578125 32.835938 C 88.828125 32.90625 88.101562 33.074219 87.394531 33.34375 C 86.691406 33.613281 86.035156 33.972656 85.433594 34.421875 Z M 85.433594 34.421875 " fill-opacity="1" fill-rule="nonzero"/></g><g fill="#ffffff" fill-opacity="1"><g transform="translate(50.034538, 117.405961)"><g><path d="M 0.109375 0 L 3.296875 -18.359375 L 8.375 -18.34375 C 10.132812 -18.34375 11.476562 -17.914062 12.40625 -17.0625 C 13.332031 -16.21875 13.742188 -15.007812 13.640625 -13.4375 C 13.492188 -11.5625 12.515625 -10.207031 10.703125 -9.375 C 11.347656 -9.101562 11.820312 -8.632812 12.125 -7.96875 C 12.4375 -7.300781 12.554688 -6.476562 12.484375 -5.5 C 12.359375 -3.789062 11.75 -2.445312 10.65625 -1.46875 C 9.570312 -0.488281 8.113281 0 6.28125 0 Z M 5.125 -7.984375 L 4.265625 -3.078125 L 6.375 -3.046875 C 7.175781 -3.066406 7.804688 -3.359375 8.265625 -3.921875 C 8.722656 -4.492188 8.960938 -5.304688 8.984375 -6.359375 C 8.984375 -7.367188 8.554688 -7.90625 7.703125 -7.96875 Z M 5.578125 -10.6875 L 7.296875 -10.65625 C 8.203125 -10.675781 8.890625 -10.988281 9.359375 -11.59375 C 9.835938 -12.195312 10.039062 -12.96875 9.96875 -13.90625 C 9.882812 -14.757812 9.382812 -15.210938 8.46875 -15.265625 L 6.375 -15.265625 Z M 5.578125 -10.6875 "/></g></g><g transform="translate(64.22373, 117.405961)"><g><path d="M 6.4375 0 C 6.363281 -0.28125 6.328125 -0.632812 6.328125 -1.0625 C 5.554688 -0.175781 4.675781 0.265625 3.6875 0.265625 C 2.632812 0.242188 1.789062 -0.140625 1.15625 -0.890625 C 0.519531 -1.648438 0.226562 -2.59375 0.28125 -3.71875 C 0.351562 -5.164062 0.914062 -6.296875 1.96875 -7.109375 C 3.019531 -7.929688 4.429688 -8.34375 6.203125 -8.34375 L 7.21875 -8.34375 L 7.390625 -9.453125 L 7.421875 -10.03125 C 7.421875 -10.757812 7.128906 -11.125 6.546875 -11.125 C 5.734375 -11.144531 5.238281 -10.625 5.0625 -9.5625 L 1.59375 -9.53125 C 1.664062 -10.820312 2.203125 -11.878906 3.203125 -12.703125 C 4.203125 -13.523438 5.421875 -13.925781 6.859375 -13.90625 C 8.210938 -13.875 9.25 -13.445312 9.96875 -12.625 C 10.6875 -11.8125 10.976562 -10.734375 10.84375 -9.390625 L 9.734375 -2.453125 L 9.6875 -1.78125 C 9.65625 -1.1875 9.710938 -0.671875 9.859375 -0.234375 L 9.84375 0 Z M 4.640625 -2.515625 C 5.253906 -2.503906 5.828125 -2.773438 6.359375 -3.328125 L 6.96875 -6.21875 L 6.21875 -6.21875 C 5.539062 -6.1875 4.992188 -5.957031 4.578125 -5.53125 C 4.171875 -5.113281 3.925781 -4.585938 3.84375 -3.953125 L 3.828125 -3.46875 C 3.828125 -3.195312 3.894531 -2.972656 4.03125 -2.796875 C 4.175781 -2.617188 4.378906 -2.523438 4.640625 -2.515625 Z M 4.640625 -2.515625 "/></g></g><g transform="translate(76.142651, 117.405961)"><g><path d="M 5.28125 -2.6875 C 6.238281 -2.65625 6.832031 -3.332031 7.0625 -4.71875 L 10.328125 -4.734375 C 10.179688 -3.210938 9.617188 -1.988281 8.640625 -1.0625 C 7.671875 -0.144531 6.484375 0.296875 5.078125 0.265625 C 3.804688 0.234375 2.796875 -0.144531 2.046875 -0.875 C 1.296875 -1.601562 0.847656 -2.617188 0.703125 -3.921875 C 0.578125 -4.984375 0.640625 -6.257812 0.890625 -7.75 C 1.140625 -9.25 1.597656 -10.5 2.265625 -11.5 C 3.367188 -13.144531 4.9375 -13.941406 6.96875 -13.890625 C 8.351562 -13.847656 9.40625 -13.347656 10.125 -12.390625 C 10.851562 -11.441406 11.175781 -10.15625 11.09375 -8.53125 L 7.8125 -8.546875 L 7.828125 -9.328125 C 7.796875 -10.367188 7.382812 -10.910156 6.59375 -10.953125 C 5.351562 -11.023438 4.617188 -10.066406 4.390625 -8.078125 L 4.15625 -5.796875 C 4.050781 -5.117188 4.015625 -4.550781 4.046875 -4.09375 C 4.109375 -3.175781 4.519531 -2.707031 5.28125 -2.6875 Z M 5.28125 -2.6875 "/></g></g><g transform="translate(87.796708, 117.405961)"><g><path d="M 5.34375 -5.203125 L 4.125 -4.046875 L 3.421875 0 L -0.0625 0 L 3.296875 -19.375 L 6.78125 -19.375 L 4.859375 -8.859375 L 5.40625 -9.546875 L 8.5 -13.640625 L 12.84375 -13.640625 L 7.875 -7.859375 L 10.65625 0 L 6.828125 0 Z M 5.34375 -5.203125 "/></g></g></g></svg>