<svg xmlns="http://www.w3.org/2000/svg" xmlns:xlink="http://www.w3.org/1999/xlink" width="200" zoomAndPan="magnify" viewBox="0 0 150 149.999998" height="200" preserveAspectRatio="xMidYMid meet" version="1.0"><defs><g/><clipPath id="bea565000a"><path d="M 51.488281 32.320312 L 98.503906 32.320312 L 98.503906 92.320312 L 51.488281 92.320312 Z M 51.488281 32.320312 " clip-rule="nonzero"/></clipPath></defs><g clip-path="url(#bea565000a)"><path fill="#ffffff" d="M 64.558594 34.421875 L 96.285156 58.097656 C 96.886719 58.550781 97.363281 59.109375 97.703125 59.78125 C 98.046875 60.453125 98.222656 61.164062 98.234375 61.914062 C 98.242188 62.671875 98.085938 63.390625 97.753906 64.074219 C 97.425781 64.753906 96.964844 65.332031 96.363281 65.796875 L 64.703125 90.539062 C 63.230469 91.699219 61.558594 92.28125 59.679688 92.289062 C 58.425781 92.285156 57.234375 92.007812 56.105469 91.460938 C 55.421875 91.128906 54.796875 90.707031 54.234375 90.199219 C 53.667969 89.691406 53.183594 89.117188 52.78125 88.472656 C 52.378906 87.828125 52.074219 87.144531 51.867188 86.414062 C 51.65625 85.6875 51.554688 84.941406 51.554688 84.183594 L 51.554688 40.890625 C 51.554688 40.140625 51.65625 39.402344 51.863281 38.679688 C 52.070312 37.960938 52.371094 37.277344 52.769531 36.640625 C 53.164062 36 53.640625 35.429688 54.199219 34.921875 C 54.757812 34.414062 55.371094 33.996094 56.046875 33.660156 C 56.722656 33.324219 57.429688 33.085938 58.171875 32.945312 C 58.914062 32.804688 59.660156 32.769531 60.410156 32.835938 C 61.164062 32.90625 61.890625 33.074219 62.59375 33.34375 C 63.300781 33.613281 63.953125 33.972656 64.558594 34.421875 Z M 64.558594 34.421875 " fill-opacity="1" fill-rule="nonzero"/></g><g fill="#ffffff" fill-opacity="1"><g transform="translate(34.023575, 118.236521)"><g><path d="M 10.625 -7.484375 L 5.03125 -7.484375 L 3.734375 0 L 0.109375 0 L 3.296875 -18.359375 L 13.171875 -18.359375 L 12.640625 -15.265625 L 6.375 -15.265625 L 5.5625 -10.5625 L 11.15625 -10.5625 Z M 10.625 -7.484375 "/></g></g></g><g fill="#ffffff" fill-opacity="1"><g transform="translate(46.067451, 118.236521)"><g><path d="M 7.125 -13.890625 C 8.5 -13.859375 9.570312 -13.394531 10.34375 -12.5 C 11.125 -11.601562 11.550781 -10.394531 11.625 -8.875 L 11.625 -7.984375 C 11.519531 -5.335938 10.890625 -3.289062 9.734375 -1.84375 C 8.578125 -0.394531 7.066406 0.300781 5.203125 0.25 C 4.117188 0.226562 3.222656 -0.0625 2.515625 -0.625 C 1.816406 -1.1875 1.3125 -1.960938 1 -2.953125 C 0.695312 -3.941406 0.613281 -5.082031 0.75 -6.375 L 0.8125 -7.046875 C 1.0625 -9.191406 1.75 -10.878906 2.875 -12.109375 C 4 -13.335938 5.414062 -13.929688 7.125 -13.890625 Z M 4.171875 -4.9375 C 4.171875 -3.488281 4.617188 -2.738281 5.515625 -2.6875 C 6.722656 -2.613281 7.507812 -3.535156 7.875 -5.453125 L 8.015625 -6.375 C 8.128906 -7.582031 8.1875 -8.359375 8.1875 -8.703125 C 8.1875 -10.148438 7.726562 -10.898438 6.8125 -10.953125 C 6.144531 -10.992188 5.597656 -10.6875 5.171875 -10.03125 C 4.742188 -9.382812 4.46875 -8.445312 4.34375 -7.21875 C 4.226562 -6 4.171875 -5.238281 4.171875 -4.9375 Z M 4.171875 -4.9375 "/></g></g></g><g fill="#ffffff" fill-opacity="1"><g transform="translate(58.653617, 118.236521)"><g><path d="M 8.359375 -10.21875 L 7.25 -10.34375 C 6.320312 -10.351562 5.570312 -9.910156 5 -9.015625 L 3.421875 0 L -0.078125 0 L 2.296875 -13.640625 L 5.5625 -13.65625 L 5.28125 -12.15625 C 5.695312 -12.8125 6.101562 -13.269531 6.5 -13.53125 C 6.894531 -13.800781 7.316406 -13.9375 7.765625 -13.9375 C 8.035156 -13.9375 8.394531 -13.875 8.84375 -13.75 Z M 8.359375 -10.21875 "/></g></g></g><g fill="#ffffff" fill-opacity="1"><g transform="translate(67.090636, 118.236521)"><g><path d="M 10.59375 -6.015625 L 13.109375 -13.640625 L 16.515625 -13.640625 L 11.40625 0 L 8.515625 0 L 8.015625 -7.84375 L 4.796875 0 L 1.875 0 L 1.5 -13.640625 L 4.78125 -13.640625 L 4.609375 -6.0625 L 7.6875 -13.640625 L 10.171875 -13.640625 Z M 10.59375 -6.015625 "/></g></g></g><g fill="#ffffff" fill-opacity="1"><g transform="translate(83.069265, 118.236521)"><g><path d="M 6.4375 0 C 6.363281 -0.28125 6.328125 -0.632812 6.328125 -1.0625 C 5.554688 -0.175781 4.675781 0.265625 3.6875 0.265625 C 2.632812 0.242188 1.789062 -0.140625 1.15625 -0.890625 C 0.519531 -1.648438 0.226562 -2.59375 0.28125 -3.71875 C 0.351562 -5.164062 0.914062 -6.296875 1.96875 -7.109375 C 3.019531 -7.929688 4.429688 -8.34375 6.203125 -8.34375 L 7.21875 -8.34375 L 7.390625 -9.453125 L 7.421875 -10.03125 C 7.421875 -10.757812 7.128906 -11.125 6.546875 -11.125 C 5.734375 -11.144531 5.238281 -10.625 5.0625 -9.5625 L 1.59375 -9.53125 C 1.664062 -10.820312 2.203125 -11.878906 3.203125 -12.703125 C 4.203125 -13.523438 5.421875 -13.925781 6.859375 -13.90625 C 8.210938 -13.875 9.25 -13.445312 9.96875 -12.625 C 10.6875 -11.8125 10.976562 -10.734375 10.84375 -9.390625 L 9.734375 -2.453125 L 9.6875 -1.78125 C 9.65625 -1.1875 9.710938 -0.671875 9.859375 -0.234375 L 9.84375 0 Z M 4.640625 -2.515625 C 5.253906 -2.503906 5.828125 -2.773438 6.359375 -3.328125 L 6.96875 -6.21875 L 6.21875 -6.21875 C 5.539062 -6.1875 4.992188 -5.957031 4.578125 -5.53125 C 4.171875 -5.113281 3.925781 -4.585938 3.84375 -3.953125 L 3.828125 -3.46875 C 3.828125 -3.195312 3.894531 -2.972656 4.03125 -2.796875 C 4.175781 -2.617188 4.378906 -2.523438 4.640625 -2.515625 Z M 4.640625 -2.515625 "/></g></g></g><g fill="#ffffff" fill-opacity="1"><g transform="translate(94.987027, 118.236521)"><g><path d="M 8.359375 -10.21875 L 7.25 -10.34375 C 6.320312 -10.351562 5.570312 -9.910156 5 -9.015625 L 3.421875 0 L -0.078125 0 L 2.296875 -13.640625 L 5.5625 -13.65625 L 5.28125 -12.15625 C 5.695312 -12.8125 6.101562 -13.269531 6.5 -13.53125 C 6.894531 -13.800781 7.316406 -13.9375 7.765625 -13.9375 C 8.035156 -13.9375 8.394531 -13.875 8.84375 -13.75 Z M 8.359375 -10.21875 "/></g></g></g><g fill="#ffffff" fill-opacity="1"><g transform="translate(103.424046, 118.236521)"><g><path d="M 5.984375 -13.90625 C 6.984375 -13.875 7.796875 -13.410156 8.421875 -12.515625 L 9.703125 -19.375 L 13.21875 -19.375 L 9.859375 0 L 6.734375 0 L 6.921875 -1.390625 C 6.046875 -0.273438 5.082031 0.28125 4.03125 0.28125 C 2.863281 0.257812 1.984375 -0.1875 1.390625 -1.0625 C 0.796875 -1.945312 0.515625 -3.21875 0.546875 -4.875 L 0.578125 -5.6875 C 0.773438 -8.457031 1.320312 -10.53125 2.21875 -11.90625 C 3.125 -13.28125 4.378906 -13.945312 5.984375 -13.90625 Z M 4.015625 -4.9375 C 3.972656 -4.195312 4.054688 -3.640625 4.265625 -3.265625 C 4.484375 -2.898438 4.816406 -2.71875 5.265625 -2.71875 C 5.859375 -2.695312 6.425781 -3.007812 6.96875 -3.65625 L 8.078125 -9.921875 C 7.765625 -10.566406 7.3125 -10.898438 6.71875 -10.921875 C 5.476562 -10.984375 4.695312 -10.082031 4.375 -8.21875 L 4.234375 -7.265625 Z M 4.015625 -4.9375 "/></g></g></g></svg>