<svg xmlns="http://www.w3.org/2000/svg" xmlns:xlink="http://www.w3.org/1999/xlink" width="200" zoomAndPan="magnify" viewBox="0 0 150 149.999998" height="200" preserveAspectRatio="xMidYMid meet" version="1.0"><defs><g/><clipPath id="0da4600249"><path d="M 48.925781 34.160156 L 101.425781 34.160156 L 101.425781 94.160156 L 48.925781 94.160156 Z M 48.925781 34.160156 " clip-rule="nonzero"/></clipPath></defs><g clip-path="url(#0da4600249)"><path fill="#ffffff" d="M 92.253906 94.152344 L 57.925781 94.152344 C 57.339844 94.152344 56.753906 94.09375 56.175781 93.980469 C 55.601562 93.863281 55.039062 93.695312 54.496094 93.472656 C 53.953125 93.246094 53.433594 92.972656 52.945312 92.648438 C 52.457031 92.320312 52.003906 91.953125 51.585938 91.539062 C 51.167969 91.125 50.796875 90.675781 50.46875 90.191406 C 50.144531 89.703125 49.867188 89.191406 49.640625 88.648438 C 49.414062 88.109375 49.246094 87.554688 49.128906 86.980469 C 49.015625 86.40625 48.957031 85.828125 48.953125 85.242188 L 48.953125 61.34375 C 48.953125 60.207031 49.164062 59.113281 49.59375 58.058594 C 50.023438 57.003906 50.636719 56.070312 51.433594 55.257812 L 69.796875 36.394531 C 70.140625 36.042969 70.515625 35.726562 70.921875 35.449219 C 71.328125 35.167969 71.761719 34.933594 72.214844 34.742188 C 72.671875 34.550781 73.140625 34.402344 73.625 34.304688 C 74.109375 34.207031 74.597656 34.160156 75.089844 34.160156 C 75.585938 34.160156 76.074219 34.207031 76.558594 34.304688 C 77.042969 34.402344 77.511719 34.550781 77.96875 34.742188 C 78.421875 34.933594 78.851562 35.167969 79.261719 35.449219 C 79.667969 35.726562 80.042969 36.042969 80.382812 36.394531 L 100.460938 57.011719 C 100.714844 57.269531 100.90625 57.566406 101.042969 57.902344 C 101.175781 58.238281 101.242188 58.585938 101.238281 58.945312 C 101.230469 59.308594 101.15625 59.652344 101.011719 59.984375 C 100.867188 60.316406 100.664062 60.605469 100.402344 60.855469 C 100.144531 61.109375 99.84375 61.300781 99.503906 61.429688 C 99.167969 61.5625 98.816406 61.625 98.453125 61.617188 C 98.089844 61.613281 97.742188 61.535156 97.410156 61.390625 C 97.078125 61.246094 96.785156 61.042969 96.535156 60.785156 L 76.457031 40.175781 C 76.28125 39.988281 76.074219 39.84375 75.835938 39.738281 C 75.597656 39.636719 75.351562 39.585938 75.089844 39.585938 C 74.832031 39.585938 74.585938 39.636719 74.347656 39.738281 C 74.109375 39.84375 73.902344 39.988281 73.726562 40.175781 L 55.359375 59.027344 C 54.730469 59.675781 54.417969 60.449219 54.425781 61.351562 L 54.425781 85.242188 C 54.425781 85.703125 54.515625 86.148438 54.691406 86.574219 C 54.871094 87.003906 55.125 87.378906 55.453125 87.707031 C 55.78125 88.03125 56.164062 88.285156 56.59375 88.460938 C 57.023438 88.640625 57.46875 88.726562 57.933594 88.730469 L 92.261719 88.730469 C 92.625 88.730469 92.972656 88.796875 93.308594 88.933594 C 93.644531 89.074219 93.9375 89.269531 94.195312 89.523438 C 94.449219 89.777344 94.648438 90.070312 94.785156 90.402344 C 94.925781 90.734375 94.996094 91.082031 94.996094 91.441406 C 94.996094 91.800781 94.925781 92.144531 94.785156 92.476562 C 94.648438 92.808594 94.449219 93.105469 94.195312 93.359375 C 93.9375 93.613281 93.644531 93.808594 93.308594 93.945312 C 92.972656 94.082031 92.625 94.152344 92.261719 94.152344 Z M 92.253906 94.152344 " fill-opacity="1" fill-rule="nonzero"/></g><g fill="#ffffff" fill-opacity="1"><g transform="translate(45.546526, 117.405961)"><g><path d="M 12.625 0 L 9.015625 0 L 10.375 -7.859375 L 5.09375 -7.859375 L 3.734375 0 L 0.109375 0 L 3.296875 -18.359375 L 6.90625 -18.359375 L 5.625 -10.9375 L 10.90625 -10.9375 L 12.203125 -18.359375 L 15.8125 -18.359375 Z M 12.625 0 "/></g></g><g transform="translate(61.04743, 117.405961)"><g><path d="M 7.125 -13.890625 C 8.5 -13.859375 9.570312 -13.394531 10.34375 -12.5 C 11.125 -11.601562 11.550781 -10.394531 11.625 -8.875 L 11.625 -7.984375 C 11.519531 -5.335938 10.890625 -3.289062 9.734375 -1.84375 C 8.578125 -0.394531 7.066406 0.300781 5.203125 0.25 C 4.117188 0.226562 3.222656 -0.0625 2.515625 -0.625 C 1.816406 -1.1875 1.3125 -1.960938 1 -2.953125 C 0.695312 -3.941406 0.613281 -5.082031 0.75 -6.375 L 0.8125 -7.046875 C 1.0625 -9.191406 1.75 -10.878906 2.875 -12.109375 C 4 -13.335938 5.414062 -13.929688 7.125 -13.890625 Z M 4.171875 -4.9375 C 4.171875 -3.488281 4.617188 -2.738281 5.515625 -2.6875 C 6.722656 -2.613281 7.507812 -3.535156 7.875 -5.453125 L 8.015625 -6.375 C 8.128906 -7.582031 8.1875 -8.359375 8.1875 -8.703125 C 8.1875 -10.148438 7.726562 -10.898438 6.8125 -10.953125 C 6.144531 -10.992188 5.597656 -10.6875 5.171875 -10.03125 C 4.742188 -9.382812 4.46875 -8.445312 4.34375 -7.21875 C 4.226562 -6 4.171875 -5.238281 4.171875 -4.9375 Z M 4.171875 -4.9375 "/></g></g><g transform="translate(73.63482, 117.405961)"><g><path d="M 5.546875 -13.65625 L 5.328125 -12.375 C 6.265625 -13.425781 7.332031 -13.929688 8.53125 -13.890625 C 9.84375 -13.859375 10.691406 -13.25 11.078125 -12.0625 C 12.117188 -13.320312 13.273438 -13.9375 14.546875 -13.90625 C 15.503906 -13.894531 16.234375 -13.535156 16.734375 -12.828125 C 17.242188 -12.128906 17.492188 -11.132812 17.484375 -9.84375 L 17.421875 -8.671875 L 15.984375 0 L 12.5 0 L 13.953125 -8.703125 L 14.015625 -9.40625 C 14.078125 -10.414062 13.738281 -10.921875 13 -10.921875 C 12.40625 -10.921875 11.859375 -10.515625 11.359375 -9.703125 L 11.28125 -9.09375 L 9.703125 0 L 6.234375 0 L 7.671875 -8.671875 L 7.75 -9.390625 C 7.8125 -10.410156 7.476562 -10.921875 6.75 -10.921875 C 6.394531 -10.921875 6.09375 -10.820312 5.84375 -10.625 C 5.59375 -10.425781 5.363281 -10.191406 5.15625 -9.921875 L 3.4375 0 L -0.046875 0 L 2.328125 -13.640625 Z M 5.546875 -13.65625 "/></g></g><g transform="translate(92.339328, 117.405961)"><g><path d="M 5.5625 0.25 C 4.457031 0.238281 3.519531 -0.0234375 2.75 -0.546875 C 1.988281 -1.078125 1.4375 -1.820312 1.09375 -2.78125 C 0.75 -3.738281 0.644531 -4.828125 0.78125 -6.046875 L 0.890625 -6.96875 C 1.171875 -9.226562 1.859375 -10.957031 2.953125 -12.15625 C 4.054688 -13.351562 5.457031 -13.929688 7.15625 -13.890625 C 8.394531 -13.859375 9.367188 -13.46875 10.078125 -12.71875 C 10.796875 -11.976562 11.210938 -10.941406 11.328125 -9.609375 C 11.390625 -8.804688 11.375 -8.023438 11.28125 -7.265625 L 11.03125 -5.625 L 4.21875 -5.625 C 4.175781 -5.257812 4.164062 -4.910156 4.1875 -4.578125 C 4.25 -3.367188 4.84375 -2.75 5.96875 -2.71875 C 7.019531 -2.6875 8.035156 -3.085938 9.015625 -3.921875 L 10.1875 -1.75 C 9.726562 -1.125 9.082031 -0.628906 8.25 -0.265625 C 7.425781 0.0976562 6.53125 0.269531 5.5625 0.25 Z M 6.8125 -10.953125 C 5.8125 -10.992188 5.113281 -10.359375 4.71875 -9.046875 L 4.46875 -8.125 L 7.9375 -8.109375 C 8.019531 -8.597656 8.066406 -8.992188 8.078125 -9.296875 C 8.109375 -10.359375 7.6875 -10.910156 6.8125 -10.953125 Z M 6.8125 -10.953125 "/></g></g></g></svg>