<svg xmlns="http://www.w3.org/2000/svg" xmlns:xlink="http://www.w3.org/1999/xlink" width="566" zoomAndPan="magnify" viewBox="0 0 425.25 70.499999" height="94" preserveAspectRatio="xMidYMid meet" version="1.0"><defs><g/></defs><g fill="#ffffff" fill-opacity="1"><g transform="translate(9.609931, 52.307782)"><g><path d="M 6.4375 0.359375 C 2.90625 0.359375 0.554688 -0.515625 -0.609375 -2.265625 C -1.773438 -4.023438 -1.90625 -6.851562 -1 -10.75 L -0.140625 -14.5625 L 7.53125 -14.5625 L 6.40625 -9.703125 C 5.945312 -7.773438 6.335938 -6.8125 7.578125 -6.8125 C 8.273438 -6.8125 8.8125 -7.015625 9.1875 -7.421875 C 9.5625 -7.828125 9.859375 -8.515625 10.078125 -9.484375 C 10.378906 -10.753906 10.46875 -11.804688 10.34375 -12.640625 C 10.226562 -13.472656 10.003906 -14.164062 9.671875 -14.71875 C 9.335938 -15.28125 8.703125 -16.148438 7.765625 -17.328125 L 5.171875 -20.6875 C 3.171875 -23.226562 2.519531 -26.039062 3.21875 -29.125 C 3.976562 -32.457031 5.328125 -34.992188 7.265625 -36.734375 C 9.203125 -38.472656 11.632812 -39.34375 14.5625 -39.34375 C 18.070312 -39.34375 20.382812 -38.410156 21.5 -36.546875 C 22.625 -34.691406 22.71875 -31.78125 21.78125 -27.8125 L 13.84375 -27.8125 L 14.4375 -30.484375 C 14.550781 -31.003906 14.503906 -31.414062 14.296875 -31.71875 C 14.085938 -32.019531 13.722656 -32.171875 13.203125 -32.171875 C 12.597656 -32.171875 12.097656 -32.003906 11.703125 -31.671875 C 11.316406 -31.335938 11.0625 -30.882812 10.9375 -30.3125 C 10.632812 -29.039062 11.054688 -27.722656 12.203125 -26.359375 L 15.75 -22 C 16.5625 -20.976562 17.207031 -20.003906 17.6875 -19.078125 C 18.175781 -18.160156 18.488281 -17.070312 18.625 -15.8125 C 18.757812 -14.5625 18.632812 -13.070312 18.25 -11.34375 C 17.332031 -7.5 15.941406 -4.585938 14.078125 -2.609375 C 12.222656 -0.628906 9.675781 0.359375 6.4375 0.359375 Z M 6.4375 0.359375 "/></g></g></g><g fill="#ffffff" fill-opacity="1"><g transform="translate(30.526897, 52.307782)"><g><path d="M 3.765625 0.359375 C 1.191406 0.359375 -0.367188 -0.492188 -0.921875 -2.203125 C -1.484375 -3.910156 -1.398438 -6.351562 -0.671875 -9.53125 C -0.0664062 -12.132812 0.726562 -14.128906 1.71875 -15.515625 C 2.71875 -16.910156 3.898438 -17.929688 5.265625 -18.578125 C 6.628906 -19.234375 8.640625 -19.953125 11.296875 -20.734375 L 13.65625 -21.46875 L 13.65625 -21.546875 L 14.4375 -24.859375 C 14.644531 -25.742188 14.625 -26.421875 14.375 -26.890625 C 14.132812 -27.359375 13.773438 -27.59375 13.296875 -27.59375 C 12.867188 -27.59375 12.453125 -27.394531 12.046875 -27 C 11.640625 -26.601562 11.359375 -26.070312 11.203125 -25.40625 L 10.75 -23.40625 L 3.046875 -23.40625 L 3.265625 -24.5 C 4.023438 -27.769531 5.328125 -30.097656 7.171875 -31.484375 C 9.015625 -32.878906 11.660156 -33.578125 15.109375 -33.578125 C 17.859375 -33.578125 19.929688 -32.859375 21.328125 -31.421875 C 22.722656 -29.984375 23.113281 -27.945312 22.5 -25.3125 L 16.703125 0 L 8.796875 0 L 9.71875 -3.953125 C 8.988281 -2.585938 8.109375 -1.523438 7.078125 -0.765625 C 6.046875 -0.015625 4.941406 0.359375 3.765625 0.359375 Z M 8.3125 -5.8125 C 8.914062 -5.8125 9.40625 -6.0625 9.78125 -6.5625 C 10.15625 -7.0625 10.421875 -7.671875 10.578125 -8.390625 L 12.703125 -17.65625 C 11.429688 -17.195312 10.429688 -16.617188 9.703125 -15.921875 C 8.984375 -15.234375 8.488281 -14.265625 8.21875 -13.015625 L 7.21875 -8.75 C 6.757812 -6.789062 7.125 -5.8125 8.3125 -5.8125 Z M 8.3125 -5.8125 "/></g></g></g><g fill="#ffffff" fill-opacity="1"><g transform="translate(52.44207, 52.307782)"><g><path d="M 5.453125 -33.21875 L 13.203125 -33.21875 L 12.296875 -29.359375 C 12.992188 -30.773438 13.851562 -31.832031 14.875 -32.53125 C 15.90625 -33.226562 17.222656 -33.578125 18.828125 -33.578125 C 20.128906 -33.578125 21.1875 -33.28125 22 -32.6875 C 22.820312 -32.101562 23.320312 -31.296875 23.5 -30.265625 C 24.40625 -31.410156 25.328125 -32.25 26.265625 -32.78125 C 27.210938 -33.3125 28.410156 -33.578125 29.859375 -33.578125 C 32.460938 -33.578125 34.085938 -32.78125 34.734375 -31.1875 C 35.390625 -29.601562 35.367188 -27.300781 34.671875 -24.28125 L 29 0 L 21.015625 0 L 26.640625 -24.40625 C 27.117188 -26.5625 26.816406 -27.640625 25.734375 -27.640625 C 24.972656 -27.640625 24.34375 -27.265625 23.84375 -26.515625 C 23.34375 -25.773438 22.972656 -24.894531 22.734375 -23.875 L 17.25 0 L 9.296875 0 L 14.9375 -24.40625 C 15.144531 -25.34375 15.21875 -26.097656 15.15625 -26.671875 C 15.09375 -27.253906 14.742188 -27.546875 14.109375 -27.546875 C 13.296875 -27.546875 12.625 -27.144531 12.09375 -26.34375 C 11.5625 -25.539062 11.175781 -24.578125 10.9375 -23.453125 L 5.53125 0 L -2.21875 0 Z M 5.453125 -33.21875 "/></g></g></g><g fill="#ffffff" fill-opacity="1"><g transform="translate(86.834826, 52.307782)"><g><path d="M 6.171875 -33.21875 L 14.25 -33.21875 L 13.84375 -31.4375 C 15.320312 -32.863281 17.078125 -33.578125 19.109375 -33.578125 C 21.679688 -33.578125 23.273438 -32.710938 23.890625 -30.984375 C 24.515625 -29.265625 24.476562 -26.878906 23.78125 -23.828125 L 20.921875 -11.53125 C 20.316406 -8.925781 19.671875 -6.796875 18.984375 -5.140625 C 18.304688 -3.492188 17.335938 -2.164062 16.078125 -1.15625 C 14.828125 -0.144531 13.160156 0.359375 11.078125 0.359375 C 9.078125 0.359375 7.6875 -0.195312 6.90625 -1.3125 L 5.078125 6.625 L -3 6.625 Z M 9.84375 -5.8125 C 10.570312 -5.8125 11.117188 -6.140625 11.484375 -6.796875 C 11.847656 -7.460938 12.179688 -8.429688 12.484375 -9.703125 L 15.75 -23.828125 C 15.988281 -24.972656 16.078125 -25.847656 16.015625 -26.453125 C 15.953125 -27.054688 15.546875 -27.359375 14.796875 -27.359375 C 13.554688 -27.359375 12.660156 -26.207031 12.109375 -23.90625 L 8.765625 -9.34375 C 8.484375 -8.226562 8.40625 -7.359375 8.53125 -6.734375 C 8.65625 -6.117188 9.09375 -5.8125 9.84375 -5.8125 Z M 9.84375 -5.8125 "/></g></g></g><g fill="#ffffff" fill-opacity="1"><g transform="translate(109.52135, 52.307782)"><g><path d="M -2.90625 0 L 6.171875 -39.203125 L 14.25 -39.203125 L 5.171875 0 Z M -2.90625 0 "/></g></g></g><g fill="#ffffff" fill-opacity="1"><g transform="translate(120.773859, 52.307782)"><g><path d="M 7.03125 0.359375 C 3.613281 0.359375 1.375 -0.578125 0.3125 -2.453125 C -0.738281 -4.328125 -0.828125 -7.125 0.046875 -10.84375 L 3.125 -24.1875 C 3.820312 -27.238281 5.226562 -29.566406 7.34375 -31.171875 C 9.46875 -32.773438 12.101562 -33.578125 15.25 -33.578125 C 21.632812 -33.578125 24.113281 -30.445312 22.6875 -24.1875 L 22.09375 -21.78125 C 21.550781 -19.363281 21.066406 -17.394531 20.640625 -15.875 L 9.125 -15.875 L 7.671875 -9.4375 C 7.398438 -8.289062 7.304688 -7.390625 7.390625 -6.734375 C 7.484375 -6.085938 7.925781 -5.765625 8.71875 -5.765625 C 9.320312 -5.765625 9.789062 -5.945312 10.125 -6.3125 C 10.457031 -6.675781 10.707031 -7.09375 10.875 -7.5625 C 11.039062 -8.03125 11.210938 -8.71875 11.390625 -9.625 L 12.15625 -12.84375 L 20.0625 -12.84375 L 19.609375 -10.9375 C 18.722656 -7.0625 17.320312 -4.207031 15.40625 -2.375 C 13.488281 -0.550781 10.695312 0.359375 7.03125 0.359375 Z M 13.75 -19.828125 L 14.75 -24.09375 C 15.289062 -26.476562 14.972656 -27.671875 13.796875 -27.671875 C 12.460938 -27.671875 11.523438 -26.476562 10.984375 -24.09375 L 9.984375 -19.828125 Z M 13.75 -19.828125 "/></g></g></g><g fill="#ffffff" fill-opacity="1"><g transform="translate(142.915899, 52.307782)"><g/></g></g><g fill="#ffffff" fill-opacity="1"><g transform="translate(153.533189, 52.307782)"><g><path d="M 6.265625 0.359375 C 3.421875 0.359375 1.347656 -0.53125 0.046875 -2.3125 C -1.253906 -4.09375 -1.539062 -6.546875 -0.8125 -9.671875 L 3.3125 -27.640625 C 4.21875 -31.503906 5.671875 -34.421875 7.671875 -36.390625 C 9.671875 -38.359375 12.316406 -39.34375 15.609375 -39.34375 C 18.484375 -39.34375 20.613281 -38.554688 22 -36.984375 C 23.394531 -35.410156 23.742188 -33.140625 23.046875 -30.171875 L 21.515625 -23.453125 L 13.75 -23.453125 L 15.109375 -29.21875 C 15.347656 -30.34375 15.382812 -31.113281 15.21875 -31.53125 C 15.050781 -31.957031 14.640625 -32.171875 13.984375 -32.171875 C 13.285156 -32.171875 12.742188 -31.925781 12.359375 -31.4375 C 11.984375 -30.957031 11.691406 -30.25 11.484375 -29.3125 L 6.9375 -9.75 C 6.726562 -8.726562 6.710938 -7.984375 6.890625 -7.515625 C 7.078125 -7.046875 7.472656 -6.8125 8.078125 -6.8125 C 9.285156 -6.8125 10.117188 -7.789062 10.578125 -9.75 L 12.203125 -16.78125 L 20.0625 -16.78125 L 18.375 -9.4375 C 16.863281 -2.90625 12.828125 0.359375 6.265625 0.359375 Z M 6.265625 0.359375 "/></g></g></g><g fill="#ffffff" fill-opacity="1"><g transform="translate(175.040012, 52.307782)"><g><path d="M 3.765625 0.359375 C 1.191406 0.359375 -0.367188 -0.492188 -0.921875 -2.203125 C -1.484375 -3.910156 -1.398438 -6.351562 -0.671875 -9.53125 C -0.0664062 -12.132812 0.726562 -14.128906 1.71875 -15.515625 C 2.71875 -16.910156 3.898438 -17.929688 5.265625 -18.578125 C 6.628906 -19.234375 8.640625 -19.953125 11.296875 -20.734375 L 13.65625 -21.46875 L 13.65625 -21.546875 L 14.4375 -24.859375 C 14.644531 -25.742188 14.625 -26.421875 14.375 -26.890625 C 14.132812 -27.359375 13.773438 -27.59375 13.296875 -27.59375 C 12.867188 -27.59375 12.453125 -27.394531 12.046875 -27 C 11.640625 -26.601562 11.359375 -26.070312 11.203125 -25.40625 L 10.75 -23.40625 L 3.046875 -23.40625 L 3.265625 -24.5 C 4.023438 -27.769531 5.328125 -30.097656 7.171875 -31.484375 C 9.015625 -32.878906 11.660156 -33.578125 15.109375 -33.578125 C 17.859375 -33.578125 19.929688 -32.859375 21.328125 -31.421875 C 22.722656 -29.984375 23.113281 -27.945312 22.5 -25.3125 L 16.703125 0 L 8.796875 0 L 9.71875 -3.953125 C 8.988281 -2.585938 8.109375 -1.523438 7.078125 -0.765625 C 6.046875 -0.015625 4.941406 0.359375 3.765625 0.359375 Z M 8.3125 -5.8125 C 8.914062 -5.8125 9.40625 -6.0625 9.78125 -6.5625 C 10.15625 -7.0625 10.421875 -7.671875 10.578125 -8.390625 L 12.703125 -17.65625 C 11.429688 -17.195312 10.429688 -16.617188 9.703125 -15.921875 C 8.984375 -15.234375 8.488281 -14.265625 8.21875 -13.015625 L 7.21875 -8.75 C 6.757812 -6.789062 7.125 -5.8125 8.3125 -5.8125 Z M 8.3125 -5.8125 "/></g></g></g><g fill="#ffffff" fill-opacity="1"><g transform="translate(196.955185, 52.307782)"><g><path d="M 5.40625 -33.21875 L 13.34375 -33.21875 L 12.53125 -29.546875 C 13.21875 -30.835938 14.132812 -31.835938 15.28125 -32.546875 C 16.4375 -33.265625 17.738281 -33.625 19.1875 -33.625 L 17.65625 -27 C 16.53125 -27 15.253906 -26.835938 13.828125 -26.515625 C 12.410156 -26.203125 11.660156 -25.832031 11.578125 -25.40625 L 5.671875 0 L -2.265625 0 Z M 5.40625 -33.21875 "/></g></g></g><g fill="#ffffff" fill-opacity="1"><g transform="translate(212.563512, 52.307782)"><g/></g></g><g fill="#ffffff" fill-opacity="1"><g transform="translate(223.180802, 52.307782)"><g><path d="M -3.078125 0 L 5.90625 -38.984375 L 13.4375 -38.984375 L 4.453125 0 Z M -3.078125 0 "/></g></g></g><g fill="#ffffff" fill-opacity="1"><g transform="translate(233.48049, 52.307782)"><g><path d="M 5.453125 -33.21875 L 13.390625 -33.21875 L 12.390625 -29 C 13.023438 -30.351562 13.847656 -31.453125 14.859375 -32.296875 C 15.867188 -33.148438 17.054688 -33.578125 18.421875 -33.578125 C 20.660156 -33.578125 22.15625 -32.890625 22.90625 -31.515625 C 23.664062 -30.140625 23.757812 -28.179688 23.1875 -25.640625 L 17.296875 0 L 9.484375 0 L 15.203125 -24.8125 C 15.347656 -25.539062 15.335938 -26.160156 15.171875 -26.671875 C 15.015625 -27.191406 14.628906 -27.453125 14.015625 -27.453125 C 13.203125 -27.453125 12.582031 -27.082031 12.15625 -26.34375 C 11.738281 -25.601562 11.378906 -24.613281 11.078125 -23.375 L 5.71875 0 L -2.21875 0 Z M 5.453125 -33.21875 "/></g></g></g><g fill="#ffffff" fill-opacity="1"><g transform="translate(256.121654, 52.307782)"><g><path d="M 6.859375 0.359375 C 0.285156 0.359375 -2.238281 -2.96875 -0.71875 -9.625 L -0.046875 -12.25 L 7.890625 -12.25 L 7.03125 -8.34375 C 6.851562 -7.5625 6.867188 -6.960938 7.078125 -6.546875 C 7.285156 -6.140625 7.738281 -5.9375 8.4375 -5.9375 C 9.5 -5.9375 10.226562 -6.800781 10.625 -8.53125 C 10.925781 -9.800781 10.910156 -10.796875 10.578125 -11.515625 C 10.242188 -12.242188 9.625 -13.019531 8.71875 -13.84375 L 5.265625 -17.109375 C 4.054688 -18.222656 3.269531 -19.378906 2.90625 -20.578125 C 2.539062 -21.773438 2.613281 -23.460938 3.125 -25.640625 C 3.519531 -27.328125 4.300781 -28.769531 5.46875 -29.96875 C 6.632812 -31.164062 8.023438 -32.066406 9.640625 -32.671875 C 11.265625 -33.273438 12.984375 -33.578125 14.796875 -33.578125 C 21.234375 -33.578125 23.710938 -30.367188 22.234375 -23.953125 L 22.09375 -23.328125 L 13.890625 -23.328125 L 14.203125 -24.59375 C 14.378906 -25.375 14.398438 -26.046875 14.265625 -26.609375 C 14.128906 -27.171875 13.757812 -27.453125 13.15625 -27.453125 C 12.613281 -27.453125 12.160156 -27.289062 11.796875 -26.96875 C 11.429688 -26.65625 11.191406 -26.226562 11.078125 -25.6875 C 10.804688 -24.476562 11.0625 -23.539062 11.84375 -22.875 L 15.921875 -19.28125 C 17.378906 -17.976562 18.394531 -16.5625 18.96875 -15.03125 C 19.539062 -13.507812 19.570312 -11.582031 19.0625 -9.25 C 18.332031 -6.164062 16.898438 -3.789062 14.765625 -2.125 C 12.640625 -0.46875 10.003906 0.359375 6.859375 0.359375 Z M 6.859375 0.359375 "/></g></g></g><g fill="#ffffff" fill-opacity="1"><g transform="translate(277.67385, 52.307782)"><g><path d="M 6.171875 -33.21875 L 14.25 -33.21875 L 13.84375 -31.4375 C 15.320312 -32.863281 17.078125 -33.578125 19.109375 -33.578125 C 21.679688 -33.578125 23.273438 -32.710938 23.890625 -30.984375 C 24.515625 -29.265625 24.476562 -26.878906 23.78125 -23.828125 L 20.921875 -11.53125 C 20.316406 -8.925781 19.671875 -6.796875 18.984375 -5.140625 C 18.304688 -3.492188 17.335938 -2.164062 16.078125 -1.15625 C 14.828125 -0.144531 13.160156 0.359375 11.078125 0.359375 C 9.078125 0.359375 7.6875 -0.195312 6.90625 -1.3125 L 5.078125 6.625 L -3 6.625 Z M 9.84375 -5.8125 C 10.570312 -5.8125 11.117188 -6.140625 11.484375 -6.796875 C 11.847656 -7.460938 12.179688 -8.429688 12.484375 -9.703125 L 15.75 -23.828125 C 15.988281 -24.972656 16.078125 -25.847656 16.015625 -26.453125 C 15.953125 -27.054688 15.546875 -27.359375 14.796875 -27.359375 C 13.554688 -27.359375 12.660156 -26.207031 12.109375 -23.90625 L 8.765625 -9.34375 C 8.484375 -8.226562 8.40625 -7.359375 8.53125 -6.734375 C 8.65625 -6.117188 9.09375 -5.8125 9.84375 -5.8125 Z M 9.84375 -5.8125 "/></g></g></g><g fill="#ffffff" fill-opacity="1"><g transform="translate(300.360361, 52.307782)"><g><path d="M 7.03125 0.359375 C 3.613281 0.359375 1.375 -0.578125 0.3125 -2.453125 C -0.738281 -4.328125 -0.828125 -7.125 0.046875 -10.84375 L 3.125 -24.1875 C 3.820312 -27.238281 5.226562 -29.566406 7.34375 -31.171875 C 9.46875 -32.773438 12.101562 -33.578125 15.25 -33.578125 C 21.632812 -33.578125 24.113281 -30.445312 22.6875 -24.1875 L 22.09375 -21.78125 C 21.550781 -19.363281 21.066406 -17.394531 20.640625 -15.875 L 9.125 -15.875 L 7.671875 -9.4375 C 7.398438 -8.289062 7.304688 -7.390625 7.390625 -6.734375 C 7.484375 -6.085938 7.925781 -5.765625 8.71875 -5.765625 C 9.320312 -5.765625 9.789062 -5.945312 10.125 -6.3125 C 10.457031 -6.675781 10.707031 -7.09375 10.875 -7.5625 C 11.039062 -8.03125 11.210938 -8.71875 11.390625 -9.625 L 12.15625 -12.84375 L 20.0625 -12.84375 L 19.609375 -10.9375 C 18.722656 -7.0625 17.320312 -4.207031 15.40625 -2.375 C 13.488281 -0.550781 10.695312 0.359375 7.03125 0.359375 Z M 13.75 -19.828125 L 14.75 -24.09375 C 15.289062 -26.476562 14.972656 -27.671875 13.796875 -27.671875 C 12.460938 -27.671875 11.523438 -26.476562 10.984375 -24.09375 L 9.984375 -19.828125 Z M 13.75 -19.828125 "/></g></g></g><g fill="#ffffff" fill-opacity="1"><g transform="translate(322.502389, 52.307782)"><g><path d="M 7.71875 0.359375 C 4.082031 0.359375 1.675781 -0.5625 0.5 -2.40625 C -0.675781 -4.25 -0.828125 -7.078125 0.046875 -10.890625 L 2.40625 -21.140625 C 3.070312 -24.015625 3.914062 -26.351562 4.9375 -28.15625 C 5.96875 -29.957031 7.320312 -31.3125 9 -32.21875 C 10.6875 -33.125 12.828125 -33.578125 15.421875 -33.578125 C 18.265625 -33.578125 20.410156 -32.832031 21.859375 -31.34375 C 23.316406 -29.863281 23.726562 -27.796875 23.09375 -25.140625 L 21.96875 -20.0625 L 13.890625 -20.0625 L 14.9375 -24.734375 C 15.144531 -25.609375 15.179688 -26.28125 15.046875 -26.75 C 14.910156 -27.21875 14.492188 -27.453125 13.796875 -27.453125 C 12.492188 -27.453125 11.628906 -26.53125 11.203125 -24.6875 L 7.484375 -8.578125 C 7.304688 -7.816406 7.316406 -7.171875 7.515625 -6.640625 C 7.710938 -6.117188 8.128906 -5.859375 8.765625 -5.859375 C 9.398438 -5.859375 9.9375 -6.113281 10.375 -6.625 C 10.8125 -7.132812 11.101562 -7.800781 11.25 -8.625 L 12.53125 -14.203125 L 20.609375 -14.203125 L 19.234375 -8.390625 C 18.597656 -5.671875 17.222656 -3.53125 15.109375 -1.96875 C 12.992188 -0.414062 10.53125 0.359375 7.71875 0.359375 Z M 7.71875 0.359375 "/></g></g></g><g fill="#ffffff" fill-opacity="1"><g transform="translate(344.780564, 52.307782)"><g><path d="M 3.953125 0.359375 C 1.859375 0.359375 0.519531 -0.078125 -0.0625 -0.953125 C -0.65625 -1.828125 -0.722656 -3.234375 -0.265625 -5.171875 L 4.53125 -25.90625 L 2.3125 -25.90625 L 3.671875 -31.9375 L 5.90625 -31.9375 L 7.53125 -38.984375 L 15.25 -38.984375 L 13.609375 -31.9375 L 15.875 -31.9375 L 14.515625 -25.90625 L 12.25 -25.90625 L 7.9375 -7.265625 C 7.789062 -6.679688 7.734375 -6.253906 7.765625 -5.984375 C 7.796875 -5.710938 8.003906 -5.578125 8.390625 -5.578125 C 8.691406 -5.578125 8.988281 -5.59375 9.28125 -5.625 C 9.570312 -5.65625 9.757812 -5.671875 9.84375 -5.671875 L 8.578125 -0.234375 C 8.085938 -0.109375 7.394531 0.0195312 6.5 0.15625 C 5.613281 0.289062 4.765625 0.359375 3.953125 0.359375 Z M 3.953125 0.359375 "/></g></g></g><g fill="#ffffff" fill-opacity="1"><g transform="translate(358.619344, 52.307782)"><g><path d="M 5.03125 -35.4375 L 6.3125 -40.96875 L 14.25 -40.96875 L 12.984375 -35.4375 Z M -3.125 0 L 4.53125 -33.21875 L 12.484375 -33.21875 L 4.8125 0 Z M -3.125 0 "/></g></g></g><g fill="#ffffff" fill-opacity="1"><g transform="translate(369.64501, 52.307782)"><g><path d="M 7.390625 0.359375 C 0.765625 0.359375 -1.757812 -3.070312 -0.1875 -9.9375 L 2.90625 -23.28125 C 3.632812 -26.425781 5.09375 -28.925781 7.28125 -30.78125 C 9.476562 -32.644531 12.117188 -33.578125 15.203125 -33.578125 C 18.285156 -33.578125 20.5 -32.644531 21.84375 -30.78125 C 23.195312 -28.925781 23.507812 -26.425781 22.78125 -23.28125 L 19.6875 -9.9375 C 18.113281 -3.070312 14.015625 0.359375 7.390625 0.359375 Z M 8.796875 -5.765625 C 9.429688 -5.765625 9.953125 -5.988281 10.359375 -6.4375 C 10.773438 -6.894531 11.070312 -7.515625 11.25 -8.296875 L 14.96875 -24.546875 C 15.425781 -26.484375 15.035156 -27.453125 13.796875 -27.453125 C 12.554688 -27.453125 11.707031 -26.484375 11.25 -24.546875 L 7.53125 -8.296875 C 7.351562 -7.515625 7.359375 -6.894531 7.546875 -6.4375 C 7.742188 -5.988281 8.160156 -5.765625 8.796875 -5.765625 Z M 8.796875 -5.765625 "/></g></g></g><g fill="#ffffff" fill-opacity="1"><g transform="translate(392.195426, 52.307782)"><g><path d="M 5.453125 -33.21875 L 13.390625 -33.21875 L 12.390625 -29 C 13.023438 -30.351562 13.847656 -31.453125 14.859375 -32.296875 C 15.867188 -33.148438 17.054688 -33.578125 18.421875 -33.578125 C 20.660156 -33.578125 22.15625 -32.890625 22.90625 -31.515625 C 23.664062 -30.140625 23.757812 -28.179688 23.1875 -25.640625 L 17.296875 0 L 9.484375 0 L 15.203125 -24.8125 C 15.347656 -25.539062 15.335938 -26.160156 15.171875 -26.671875 C 15.015625 -27.191406 14.628906 -27.453125 14.015625 -27.453125 C 13.203125 -27.453125 12.582031 -27.082031 12.15625 -26.34375 C 11.738281 -25.601562 11.378906 -24.613281 11.078125 -23.375 L 5.71875 0 L -2.21875 0 Z M 5.453125 -33.21875 "/></g></g></g></svg>